<?xml version="1.0" encoding="utf-8"?>
<!-- Generator: Adobe Illustrator 19.0.0, SVG Export Plug-In . SVG Version: 6.00 Build 0)  -->
<svg version="1.1" id="图层_1" xmlns="http://www.w3.org/2000/svg" xmlns:xlink="http://www.w3.org/1999/xlink" x="0px" y="0px"
	 width="65px" height="34px" viewBox="0 0 65 34" style="enable-background:new 0 0 65 34;" xml:space="preserve">
<style type="text/css">
	.st0{fill:#4178BE;}
	.st1{fill:#FF6600;}
	.st2{fill:#FFCE00;}
	.st3{fill:#31FFAB;}
	.st4{fill:#1B92F2;}
	.st5{fill:#365C9B;}
</style>
<g id="XMLID_2392_">
	<path id="XMLID_2394_" class="st0" d="M62.5,13c0.1,0,0.1,0,0.2,0c0.1,0,0.1,0,0.2,0h0c1.1,0,2-0.9,2-2V5.1c0-1.1-0.9-2-2-2h0
		c-0.1,0-0.1,0-0.2,0c-0.1,0-0.1,0-0.2,0h-9.7l-1-1.6c-0.6-1-1.8-1.3-2.8-0.7c-0.8,0.5-1.1,1.4-0.9,2.3h-8.5c-0.3,0-0.6,0.1-0.9,0.2
		c-0.8,0.3-1.3,1-1.3,1.9c0.3,5.5,0.3,20.7-2.9,25.3c-0.6,0.9-0.4,2.1,0.5,2.7c0.3,0.2,0.7,0.3,1.1,0.3c0.6,0,1.2-0.3,1.6-0.8
		c2.9-4.1,3.6-13,3.7-19.7h8.7c-0.2,0.4-0.2,0.9,0,1.4h-6.4c-1.1,0-2,0.9-2,2s0.9,2,2,2H46c-0.1,0.8-0.2,1.7-0.4,2.8
		c0,0,0,0.1,0,0.1c-0.5,2.9-1.6,7-4.2,8.6c-0.9,0.6-1.2,1.8-0.6,2.7c0.4,0.6,1,0.9,1.6,0.9c0.4,0,0.7-0.1,1-0.3
		c3.2-2,4.8-6.4,5.6-9.7h11.7c-0.3,2.3-0.7,5.5-1.2,6c-1.2,0.3-4.4-0.2-6.8-1c-1-0.3-2.1,0.3-2.4,1.3c-0.3,1,0.3,2.1,1.3,2.4
		c0.8,0.2,4.1,1.2,7,1.2c0.9,0,1.7-0.1,2.4-0.3c3.2-1.1,3.7-8,3.9-11.4c0-0.5-0.2-1-0.5-1.4c-0.4-0.4-0.9-0.6-1.4-0.6H49.8
		c0.1-0.5,0.1-0.9,0.1-1.3h13c1.1,0,2-0.9,2-2s-0.9-2-2-2h-8.1L54,13H62.5z M42.3,7.1H60c0.5,0,0.9,0.4,0.9,0.9v0
		c0,0.5-0.4,0.9-0.9,0.9H42.3c-0.5,0-0.9-0.4-0.9-0.9c0,0,0,0,0,0C41.4,7.5,41.8,7.1,42.3,7.1z"/>
	<path id="XMLID_2423_" class="st1" d="M14.9,0.5H2.1c-1.1,0-2,0.9-2,2c0,0,0,0,0,0.1c0,0,0,0,0,0.1v13.2C0.1,17,1,18,2.2,18
		s2.1-1,2.1-2.1V4.5h10.6c1.1,0,2-0.9,2-2S16,0.5,14.9,0.5z"/>
	<path id="XMLID_2391_" class="st2" d="M26.8,19L26.8,19c-1.1,0-2.1-0.9-2.1-2.1V2.5c0-1.1,0.9-2.1,2.1-2.1h0c1.1,0,2.1,0.9,2.1,2.1
		V17C28.8,18.1,27.9,19,26.8,19z"/>
	<path id="XMLID_2390_" class="st3" d="M26.8,33.5L26.8,33.5c-1.1,0-2.1-0.9-2.1-2.1V17c0-1.1,0.9-2.1,2.1-2.1h0
		c1.1,0,2.1,0.9,2.1,2.1v14.5C28.8,32.6,27.9,33.5,26.8,33.5z"/>
	<path id="XMLID_2389_" class="st4" d="M8.8,33.5c-3.3,0-6.1-1.4-8.2-3.9c-0.7-0.9-0.6-2.2,0.3-2.9C1.7,26,2.9,26.1,3.7,27
		c1.4,1.6,3,2.5,5.1,2.5c3.9,0,7.1-3.2,7.1-7.1s-3.2-7.1-7.1-7.1c-1.8,0-3.4,0.7-4.7,1.9c-0.1,0.2-0.2,0.3-0.3,0.4
		c-0.7,0.8-2.2,0.8-3,0c-0.8-0.8-0.9-2.1-0.1-2.9C0.8,14.4,1,14.2,1.2,14c2.1-1.9,4.8-2.9,7.6-2.9c6.2,0,11.2,5,11.2,11.2
		S15,33.5,8.8,33.5z"/>
	<path id="XMLID_2388_" class="st5" d="M0.6,14.6C0.2,15,0.1,15.5,0.1,16c0,0.7,0.3,1.3,0.9,1.7c0,0,0,0,0.1,0
		c0.1,0,0.1,0.1,0.2,0.1c0.1,0,0.1,0.1,0.2,0.1c0.1,0,0.1,0,0.2,0.1c0.1,0,0.1,0,0.2,0.1c0.1,0,0.2,0,0.4,0h0.2c0.1,0,0.3,0,0.4,0
		c0,0,0.1,0,0.1,0c0.1,0,0.2,0,0.2-0.1c0,0,0,0,0.1,0c0.2-0.1,0.4-0.2,0.6-0.4c0,0,0,0,0,0c0.1-0.1,0.1-0.2,0.2-0.3c0,0,0,0,0-0.1
		c0.2-0.3,0.3-0.7,0.3-1.1v-4c-1.1,0.5-2.2,1.2-3.1,2C1,14.2,0.8,14.4,0.6,14.6z"/>
</g>
</svg>
